<svg xmlns="http://www.w3.org/2000/svg" width="1200" height="320" viewBox="0 0 1200 320">
  <defs>
    <linearGradient id="g" x1="0" y1="0" x2="1" y2="1">
      <stop offset="0" stop-color="#0b1020"/>
      <stop offset="0.55" stop-color="#101a33"/>
      <stop offset="1" stop-color="#0b1020"/>
      <animate attributeName="x1" dur="10s" values="0;1;0" repeatCount="indefinite"/>
    </linearGradient>

    <filter id="noise">
      <feTurbulence type="fractalNoise" baseFrequency="0.9" numOctaves="3" stitchTiles="stitch">
        <animate attributeName="baseFrequency" dur="8s" values="0.75;0.95;0.75" repeatCount="indefinite"/>
      </feTurbulence>
      <feColorMatrix type="matrix" values="
        1 0 0 0 0
        0 1 0 0 0
        0 0 1 0 0
        0 0 0 0.09 0"/>
    </filter>

    <linearGradient id="scan" x1="0" y1="0" x2="0" y2="1">
      <stop offset="0" stop-color="#ffffff" stop-opacity="0"/>
      <stop offset="0.5" stop-color="#7aa2ff" stop-opacity="0.10"/>
      <stop offset="1" stop-color="#ffffff" stop-opacity="0"/>
    </linearGradient>

    <mask id="scanMask">
      <rect x="0" y="-120" width="1200" height="180" fill="url(#scan)">
        <animate attributeName="y" dur="4.5s" values="-120;320;-120" repeatCount="indefinite"/>
      </rect>
    </mask>

    <style>
      .mono { font-family: ui-monospace, SFMono-Regular, Menlo, Monaco, Consolas, "Liberation Mono", "Courier New", monospace; }
      .sans { font-family: ui-sans-serif, system-ui, -apple-system, Segoe UI, Roboto, Helvetica, Arial; }
    </style>
  </defs>

  <rect width="1200" height="320" fill="url(#g)"/>
  <rect width="1200" height="320" filter="url(#noise)" opacity="0.75"/>

  <g opacity="0.18" stroke="#b7c5ff" stroke-width="1">
    <path d="M0 40H1200 M0 80H1200 M0 120H1200 M0 160H1200 M0 200H1200 M0 240H1200 M0 280H1200"/>
    <path d="M60 0V320 M120 0V320 M180 0V320 M240 0V320 M300 0V320 M360 0V320 M420 0V320 M480 0V320
             M540 0V320 M600 0V320 M660 0V320 M720 0V320 M780 0V320 M840 0V320 M900 0V320 M960 0V320
             M1020 0V320 M1080 0V320 M1140 0V320"/>
  </g>

  <rect width="1200" height="320" fill="#7aa2ff" opacity="0.10" mask="url(#scanMask)"/>

  <g transform="translate(64, 86)">
    <text class="sans" x="0" y="0" fill="#eaf0ff" font-size="44" font-weight="700">
      Harry David Brown
    </text>
    <text class="mono" x="0" y="42" fill="#c7d2ff" font-size="18" opacity="0.95">
      Backend · Systems · Performance · Reliability
    </text>

    <g transform="translate(0, 78)">
      <rect x="0" y="0" rx="14" ry="14" width="740" height="120" fill="#070b14" opacity="0.72" stroke="#2a3563"/>
      <circle cx="22" cy="20" r="6" fill="#ff5f57"/>
      <circle cx="42" cy="20" r="6" fill="#febc2e"/>
      <circle cx="62" cy="20" r="6" fill="#28c840"/>

      <text class="mono" x="22" y="54" fill="#eaf0ff" font-size="16">
        <tspan fill="#9bb2ff">harry</tspan><tspan fill="#7aa2ff">@</tspan><tspan fill="#9bb2ff">github</tspan>
        <tspan fill="#7aa2ff">:</tspan><tspan fill="#9bb2ff">~</tspan><tspan fill="#7aa2ff">$</tspan>
        <tspan> build --profile=prod</tspan>
      </text>

      <text class="mono" x="22" y="80" fill="#c7d2ff" font-size="14" opacity="0.95">
        perf: cache hit path · p95/p99 · observability · CI/CD · clean interfaces
      </text>

      <rect x="650" y="40" width="10" height="18" fill="#eaf0ff" opacity="0.85">
        <animate attributeName="opacity" dur="0.9s" values="0;1;0" repeatCount="indefinite"/>
      </rect>
    </g>
  </g>

  <text class="mono" x="64" y="304" fill="#c7d2ff" font-size="12" opacity="0.7">
    artifact-driven profile · actions generate SVGs daily
  </text>
</svg>
